# Blender v2.78 (sub 0) OBJ File: 'example_mesh_2D.blend'
# www.blender.org
mtllib example_mesh_2D.mtl
o Plane
v -4.000000 0.000000 4.000000
v 4.000000 0.000000 4.000000
v -4.000000 0.000000 -4.000000
v 4.000000 0.000000 -4.000000
v -4.000000 0.000000 0.000000
v 0.000000 0.000000 4.000000
v 4.000000 0.000000 0.000000
v 0.000000 0.000000 -4.000000
v 0.000000 0.000000 0.000000
v -4.000000 0.000000 2.000000
v -2.000000 0.000000 -4.000000
v -2.000000 0.000000 4.000000
v 4.000000 0.000000 2.000000
v 0.000000 0.000000 2.000000
v -2.000000 0.000000 0.000000
v -2.000000 0.000000 2.000000
vn 0.0000 1.0000 0.0000
vn 0.0000 -1.0000 0.0000
usemtl None
s off
f 11//1 15//1 9//1 8//1
f 10//2 5//2 15//2 16//2
f 1//2 10//2 16//2 12//2
f 12//2 16//2 14//2 6//2
f 3//1 5//1 15//1 11//1
f 9//1 7//1 4//1 8//1
f 7//1 9//1 14//1 13//1
f 6//1 2//1 13//1 14//1
