# Blender v2.78 (sub 0) OBJ File: 'example_mesh.blend'
# www.blender.org
mtllib example_mesh.mtl
o Plane
v -4.000000 0.000000 4.000000
v 4.000000 0.000000 4.000000
v -4.000000 0.000000 -4.000000
v 4.000000 0.000000 -4.000000
v -4.000000 0.000000 0.000000
v 0.000000 0.000000 4.000000
v 4.000000 0.000000 0.000000
v 0.000000 0.000000 -4.000000
v 0.000000 0.000000 0.000000
v -4.000000 0.000000 2.000000
v 2.000000 0.000000 4.000000
v 4.000000 0.000000 -2.000000
v -2.000000 0.000000 -4.000000
v -4.000000 0.000000 -2.000000
v -2.000000 0.000000 4.000000
v 4.000000 0.000000 2.000000
v 2.000000 0.000000 -4.000000
v 0.000000 0.000000 -2.000000
v 0.000000 0.000000 2.000000
v -2.000000 0.000000 0.000000
v 2.000000 0.000000 0.000000
v 2.000000 0.000000 2.000000
v -2.000000 0.000000 2.000000
v -2.000000 0.000000 -2.000000
v 2.000000 0.000000 -2.000000
v -4.000000 1.000000 4.000000
v 4.000000 1.000000 4.000000
v -4.000000 1.000000 -4.000000
v 4.000000 1.000000 -4.000000
v -4.000000 1.000000 0.000000
v 0.000000 1.000000 4.000000
v 4.000000 1.000000 0.000000
v 0.000000 1.000000 -4.000000
v 0.000000 1.000000 0.000000
v -4.000000 1.000000 2.000000
v 2.000000 1.000000 4.000000
v 4.000000 1.000000 -2.000000
v -2.000000 1.000000 -4.000000
v -4.000000 1.000000 -2.000000
v -2.000000 1.000000 4.000000
v 4.000000 1.000000 2.000000
v 2.000000 1.000000 -4.000000
v 0.000000 1.000000 -2.000000
v 0.000000 1.000000 2.000000
v -2.000000 1.000000 0.000000
v 2.000000 1.000000 0.000000
v 2.000000 1.000000 2.000000
v -2.000000 1.000000 2.000000
v -2.000000 1.000000 -2.000000
v 2.000000 1.000000 -2.000000
vn 0.0000 -1.0000 0.0000
vn 0.0000 1.0000 0.0000
vn 0.0000 0.0000 1.0000
vn -1.0000 0.0000 0.0000
vn 0.0000 0.0000 -1.0000
vn 1.0000 0.0000 0.0000
usemtl None
s off
f 25//1 17//1 4//1 12//1
f 24//1 13//1 8//1 18//1
f 50//2 37//2 29//2 42//2
f 22//1 21//1 7//1 16//1
f 19//1 9//1 21//1 22//1
f 6//1 19//1 22//1 11//1
f 11//1 22//1 16//1 2//1
f 10//1 5//1 20//1 23//1
f 1//1 10//1 23//1 15//1
f 15//1 23//1 19//1 6//1
f 14//1 3//1 13//1 24//1
f 5//1 14//1 24//1 20//1
f 20//1 24//1 18//1 9//1
f 18//1 8//1 17//1 25//1
f 9//1 18//1 25//1 21//1
f 21//1 25//1 12//1 7//1
f 49//2 43//2 33//2 38//2
f 47//2 41//2 32//2 46//2
f 44//2 47//2 46//2 34//2
f 31//2 36//2 47//2 44//2
f 36//2 27//2 41//2 47//2
f 35//2 48//2 45//2 30//2
f 26//2 40//2 48//2 35//2
f 40//2 31//2 44//2 48//2
f 39//2 49//2 38//2 28//2
f 30//2 45//2 49//2 39//2
f 45//2 34//2 43//2 49//2
f 43//2 50//2 42//2 33//2
f 34//2 46//2 50//2 43//2
f 46//2 32//2 37//2 50//2
f 11//3 2//3 27//3 36//3
f 3//4 14//4 39//4 28//4
f 19//5 23//5 48//5 44//5
f 9//4 19//4 44//4 34//4
f 12//6 4//6 29//6 37//6
f 1//3 15//3 40//3 26//3
f 13//5 3//5 28//5 38//5
f 2//6 16//6 41//6 27//6
f 14//4 5//4 30//4 39//4
f 4//5 17//5 42//5 29//5
f 5//4 10//4 35//4 30//4
f 15//3 6//3 31//3 40//3
f 6//3 11//3 36//3 31//3
f 23//6 20//6 45//6 48//6
f 16//6 7//6 32//6 41//6
f 7//6 12//6 37//6 32//6
f 17//5 8//5 33//5 42//5
f 20//3 9//3 34//3 45//3
f 10//4 1//4 26//4 35//4
f 8//5 13//5 38//5 33//5
