# Blender v2.78 (sub 0) OBJ File: 'example_mesh_3D.blend'
# www.blender.org
mtllib example_mesh_3D.mtl
o Plane
v 1.000000 1.000000 -1.000000
v 1.000000 -1.000000 -1.000000
v 1.000000 1.000000 1.000000
v 1.000000 -1.000000 1.000000
vn 0.0000 0.0000 -1.0000
vn 0.0000 0.0000 1.0000
vn -1.0000 0.0000 0.0000
vn 1.0000 0.0000 0.0000
vn 0.0000 -1.0000 0.0000
vn 0.0000 1.0000 0.0000
usemtl None
s off
f 6//1 5//1 1//1 2//1
f 4//2 3//2 7//2 8//2
f 8//3 7//3 5//3 6//3
f 2//4 1//4 3//4 4//4
f 6//5 2//5 4//5 8//5
f 1//6 5//6 7//6 3//6
l 2 3
l 2 5
l 3 5
l 5 8
l 3 8
l 2 8
