# Blender v2.78 (sub 0) OBJ File: 'long bar.blend'
# www.blender.org
mtllib long_bar_dirichlet.mtl
o Cube
v -8.906303 -1.000000 1.541831
v -8.906300 -1.000000 -0.458169
v -8.906305 1.000000 1.541831
v -8.906302 1.000000 -0.458169
v -8.906301 -1.000000 0.541831
v -8.906304 0.000000 1.541831
v -8.906301 0.000000 -0.458169
v -8.906303 1.000000 0.541831
v -8.906302 0.000000 0.541831
v -8.906301 -1.000000 0.041831
v -8.906304 0.500000 1.541831
v -8.906301 0.500000 -0.458169
v -8.906302 1.000000 0.041831
v -8.906302 -1.000000 1.041831
v -8.906304 -0.500000 1.541831
v -8.906301 -0.500000 -0.458169
v -8.906304 1.000000 1.041831
v -8.906301 0.000000 0.041831
v -8.906303 0.000000 1.041831
v -8.906302 -0.500000 0.541831
v -8.906302 0.500000 0.541831
v -8.906303 0.500000 1.041831
v -8.906303 -0.500000 1.041831
v -8.906301 -0.500000 0.041831
v -8.906302 0.500000 0.041831
vn -1.0000 -0.0000 -0.0000
usemtl Material
s off
f 25//1 13//1 4//1 12//1
f 24//1 18//1 7//1 16//1
f 23//1 19//1 9//1 20//1
f 22//1 17//1 8//1 21//1
f 19//1 22//1 21//1 9//1
f 6//1 11//1 22//1 19//1
f 11//1 3//1 17//1 22//1
f 14//1 23//1 20//1 5//1
f 1//1 15//1 23//1 14//1
f 15//1 6//1 19//1 23//1
f 10//1 24//1 16//1 2//1
f 5//1 20//1 24//1 10//1
f 20//1 9//1 18//1 24//1
f 18//1 25//1 12//1 7//1
f 9//1 21//1 25//1 18//1
f 21//1 8//1 13//1 25//1
